#!OML:ASF E:\emotionWalksFemale\Project 1\Capture day 1\Session 1\Female1.ASF
:FULLY-SPECIFIED
:DEGREES
298
root 8.4441 15.2736 16.6531 -180.116 -2.31309 -173.892
lowerback 7.84433 1.39383 3.7733
upperback -4.08807 2.27608 0.473979
thorax -8.61444 0.876168 -1.95516
lowerneck -6.20354 -3.59982 -6.62327
upperneck 11.2039 -5.1617 6.4521
head 4.70745 -2.54468 2.7554
rclavicle 2.00276e-014 1.66979e-014
rhumerus -35.5713 7.00714 -86.7098
rradius 28.2649
rwrist 24.2224
rhand -4.66929 -54.4646
rfingers 7.12502
rthumb 21.1111 -83.3353
lclavicle 2.00276e-014 1.66979e-014
lhumerus -41.6082 1.22785 84.9095
lradius 34.1348
lwrist -16.8426
lhand -6.4894 -33.2123
lfingers 7.12502
lthumb 19.3618 -4.15618
rfemur -1.61367 15.2179 37.4005
rtibia 17.4041
rfoot -17.2571 -32.4656
rtoes 18.5039
lfemur -29.5279 2.03214 -16.1697
ltibia 70.1824
lfoot -12.5442 5.56147
ltoes -19.0537
299
root 8.45306 15.2625 16.5471 -180.133 -2.15983 -174.056
lowerback 7.92726 1.4118 3.62486
upperback -4.00313 2.28824 0.451825
thorax -8.57406 0.894201 -1.89895
lowerneck -6.10552 -3.61076 -6.78756
upperneck 10.9819 -5.14841 6.49213
head 4.62749 -2.54066 2.79803
rclavicle -4.96962e-016 -9.14409e-015
rhumerus -35.1299 7.45145 -86.8208
rradius 28.3403
rwrist 24.2197
rhand -4.24302 -54.532
rfingers 7.12502
rthumb 21.5206 -83.3565
lclavicle -4.96962e-016 -9.14409e-015
lhumerus -41.5397 1.36115 85.0581
lradius 34.4013
lwrist -15.9877
lhand -7.30669 -33.7151
lfingers 7.12502
lthumb 18.5758 -4.58201
rfemur -1.19913 14.9822 37.4095
rtibia 17.6534
rfoot -18.1358 -32.1706
rtoes 18.5712
lfemur -30.2294 1.60535 -16.5524
ltibia 68.931
lfoot -13.5711 6.21352
ltoes -20.291
300
root 8.46204 15.2597 16.4391 -180.063 -1.90039 -174.203
lowerback 7.99842 1.53641 3.52745
upperback -3.97951 2.4435 0.360035
thorax -8.58063 0.974253 -1.96682
lowerneck -5.96067 -3.64963 -6.7143
upperneck 10.7453 -5.18848 6.41886
head 4.53004 -2.561 2.76397
rclavicle 4.07509e-015 5.56597e-015
rhumerus -34.8701 7.92244 -87.1182
rradius 28.5152
rwrist 23.4515
rhand -4.1928 -54.9114
rfingers 7.12502
rthumb 21.5688 -83.7303
lclavicle 4.07509e-015 5.56597e-015
lhumerus -41.4558 1.09886 85.2607
lradius 34.7333
lwrist -14.9676
lhand -7.81766 -34.3482
lfingers 7.12502
lthumb 18.0843 -5.16891
rfemur -0.80176 14.5326 37.3541
rtibia 17.6724
rfoot -18.5145 -31.5453
rtoes 17.3378
lfemur -30.9224 1.30317 -16.8915
ltibia 67.5136
lfoot -14.5645 6.92353
ltoes -21.0381
301
root 8.47256 15.2573 16.3338 -180.02 -1.60758 -174.299
lowerback 8.29059 1.69911 3.55668
upperback -4.02002 2.67073 0.203377
thorax -8.77428 1.07427 -2.19549
lowerneck -5.84251 -3.68283 -6.76277
upperneck 10.6057 -5.25182 6.61524
head 4.47801 -2.58608 2.83113
rclavicle 5.61567e-015 2.38542e-015
rhumerus -34.6768 8.20345 -87.4431
rradius 28.6813
rwrist 23.0485
rhand -4.45364 -54.8319
rfingers 7.12502
rthumb 21.3183 -83.6794
lclavicle 5.61567e-015 2.38542e-015
lhumerus -41.6114 0.351204 85.5864
lradius 35.3713
lwrist -13.7862
lhand -8.21483 -34.6666
lfingers 7.12502
lthumb 17.7021 -5.45234
rfemur -0.274624 14.3457 37.3747
rtibia 17.4746
rfoot -18.5976 -31.2015
rtoes 16.721
lfemur -31.5353 1.05854 -17.1528
ltibia 65.9455
lfoot -15.2104 7.67672
ltoes -19.7983
302
root 8.4809 15.2544 16.2264 -180.01 -1.43392 -174.406
lowerback 8.5052 1.74918 3.60892
upperback -4.00079 2.74754 0.078678
thorax -8.86632 1.10404 -2.37755
lowerneck -5.76226 -3.68107 -6.95175
upperneck 10.4353 -5.25533 6.88679
head 4.42454 -2.5817 2.94793
rclavicle 3.926e-015 1.59028e-015
rhumerus -34.468 8.7684 -87.8591
rradius 29.0098
rwrist 22.3358
rhand -4.76996 -54.6408
rfingers 7.12502
rthumb 21.0144 -83.5223
lclavicle 3.926e-015 1.59028e-015
lhumerus -41.8226 -0.0327958 85.774
lradius 36.092
lwrist -12.9419
lhand -8.75657 -34.9684
lfingers 7.12502
lthumb 17.1808 -5.70792
rfemur 0.378908 14.2825 37.4125
rtibia 17.1235
rfoot -18.278 -31.3234
rtoes 16.2077
lfemur -32.0332 0.642809 -17.413
ltibia 64.2283
lfoot -15.318 8.47965
ltoes -17.9103
